<svg xmlns="http://www.w3.org/2000/svg" viewBox="0 0 114.31 17.11"><defs><style>.cls-1{fill:none;}.cls-2{fill:#eaebed;}</style></defs><title>logotipo</title><g id="Capa_2" data-name="Capa 2"><g id="Capa_1-2" data-name="Capa 1"><polygon class="cls-1" points="5.52 8.48 7.74 10.83 10 8.48 10.09 8.7 7.76 2.63 5.52 8.48"/><polygon class="cls-2" points="20 0.18 17.76 0.18 17.76 16.93 29.38 16.93 29.38 15.14 20 15.14 20 0.18"/><polygon class="cls-2" points="41.22 0.18 27.37 0.18 27.37 1.97 33.18 1.97 33.18 16.93 35.41 16.93 35.41 1.97 41.22 1.97 41.22 0.18"/><path class="cls-2" d="M58.54,8.51C58.3,2.29,66.11-.68,69,4.79l1.68-1.1C66.93-3.11,56.33.08,56.38,8.41c-.09,8,10.31,12.32,14.59,4.77l-1.78-1C65.65,18.19,58.37,14.27,58.54,8.51Z"/><rect class="cls-2" x="73.61" y="0.18" width="2.23" height="16.75"/><polygon class="cls-2" points="88.24 11.06 82.13 0.18 79.86 0.18 79.86 16.93 81.88 16.93 81.88 4.34 87.49 14.03 88.8 14.03 94.39 4.34 94.39 16.93 96.62 16.93 96.62 0.18 94.38 0.18 88.24 11.06"/><polygon class="cls-2" points="47.16 0.18 40.29 16.93 42.44 16.93 44.37 11.92 44.37 11.92 44.98 10.32 48.06 13.38 51.12 10.32 50.41 8.48 48.06 10.83 45.69 8.48 45.02 10.23 45.02 10.23 48.06 2.32 51.09 10.23 51.09 10.23 53.65 16.93 55.8 16.93 48.95 0.18 47.16 0.18"/><path class="cls-2" d="M6.87.18,0,16.93H2.27L4.15,12l.64-1.66,3,3,3-3.06,2.53,6.61H15.5L8.66.18ZM10,8.48,7.74,10.83,5.52,8.48,7.76,2.63,10.09,8.7Z"/><polygon class="cls-2" points="112.04 16.93 114.31 16.93 107.46 0.18 105.67 0.18 98.8 16.93 101.07 16.93 102.95 12.02 103.61 10.32 106.56 13.38 109.51 10.32 108.8 8.48 106.56 10.86 104.32 8.48 106.56 2.63 112.04 16.93"/></g></g></svg>