<svg xmlns="http://www.w3.org/2000/svg" viewBox="0 0 22.11 22.36"><defs><style>.cls-1{fill:#ffe708;}.cls-2{fill:#fff18f;}</style></defs><title>Sol</title><g id="Capa_2" data-name="Capa 2"><g id="Capa_1-2" data-name="Capa 1"><circle class="cls-1" cx="11.05" cy="11.18" r="6.1"/><polygon class="cls-2" points="11.29 0 12.15 1.5 13.02 3 11.29 3 9.56 3 10.42 1.5 11.29 0"/><polygon class="cls-2" points="5.73 1.36 7.22 2.23 8.72 3.1 7.22 3.96 5.73 4.82 5.73 3.1 5.73 1.36"/><polygon class="cls-2" points="1.6 5.33 3.33 5.33 5.06 5.33 4.19 6.82 3.33 8.32 2.46 6.82 1.6 5.33"/><polygon class="cls-2" points="0 10.82 1.5 9.96 3 9.09 3 10.82 3 12.55 1.5 11.69 0 10.82"/><polygon class="cls-2" points="1.36 16.38 2.23 14.88 3.1 13.38 3.96 14.88 4.82 16.38 3.1 16.38 1.36 16.38"/><polygon class="cls-2" points="5.33 20.51 5.33 18.78 5.33 17.05 6.82 17.92 8.32 18.78 6.82 19.65 5.33 20.51"/><polygon class="cls-2" points="10.82 22.36 9.95 20.84 9.07 19.33 10.82 19.33 12.57 19.33 11.69 20.84 10.82 22.36"/><polygon class="cls-2" points="16.38 20.74 14.88 19.88 13.38 19.01 14.88 18.15 16.38 17.28 16.38 19.01 16.38 20.74"/><polygon class="cls-2" points="20.51 16.78 18.78 16.78 17.05 16.78 17.92 15.28 18.78 13.79 19.65 15.28 20.51 16.78"/><polygon class="cls-2" points="22.11 11.29 20.61 12.15 19.11 13.02 19.11 11.29 19.11 9.56 20.61 10.42 22.11 11.29"/><polygon class="cls-2" points="20.74 5.73 19.88 7.22 19.01 8.72 18.15 7.22 17.28 5.73 19.01 5.73 20.74 5.73"/><polygon class="cls-2" points="16.78 1.6 16.78 3.33 16.78 5.06 15.28 4.19 13.79 3.33 15.28 2.46 16.78 1.6"/></g></g></svg>